PathFileType	4	(X/Y/Z)	Walk3.trc
DataRate	CameraRate	NumFrames	NumMarkers	Units	OrigDataRate	OrigDataStartFrame	OrigNumFrames
200.000000	200.000000	7	60	mm	200.000000	360	567
Frame#	Times		LFHD		RFHD		CLAV		STRN		LASI		RASI		RACR1		RUA1		RElbow		RFA1		RWRR		RWRU		RCAR		LACR1		LUA1		LElbow		LFA1		LWRR		LWRU		LCAR		RTH3		RTH4		RMFC		RTB1		RTB2		RTB4		LTH1		LTH3		LLFC		LMFC		LTB1		LTB2		LTB4		LMT1		RTB3		LTB3		RMMAL		RMT1		RTH2		LTH4		LTH2		RToe		RElbowM		RLFC		RBHD		LToe		RTH1		RCAL		C7		RBack		RLMAL		RPSI		LMT5		T10		LLMAL		LPSI		LMMAL		LBHD		LCAL		LElbowM
			X1	Y1	Z1	X2	Y2	Z2	X3	Y3	Z3	X4	Y4	Z4	X5	Y5	Z5	X6	Y6	Z6	X7	Y7	Z7	X8	Y8	Z8	X9	Y9	Z9	X10	Y10	Z10	X11	Y11	Z11	X12	Y12	Z12	X13	Y13	Z13	X14	Y14	Z14	X15	Y15	Z15	X16	Y16	Z16	X17	Y17	Z17	X18	Y18	Z18	X19	Y19	Z19	X20	Y20	Z20	X21	Y21	Z21	X22	Y22	Z22	X23	Y23	Z23	X24	Y24	Z24	X25	Y25	Z25	X26	Y26	Z26	X27	Y27	Z27	X28	Y28	Z28	X29	Y29	Z29	X30	Y30	Z30	X31	Y31	Z31	X32	Y32	Z32	X33	Y33	Z33	X34	Y34	Z34	X35	Y35	Z35	X36	Y36	Z36	X37	Y37	Z37	X38	Y38	Z38	X39	Y39	Z39	X40	Y40	Z40	X41	Y41	Z41	X42	Y42	Z42	X43	Y43	Z43	X44	Y44	Z44	X45	Y45	Z45	X46	Y46	Z46	X47	Y47	Z47	X48	Y48	Z48	X49	Y49	Z49	X50	Y50	Z50	X51	Y51	Z51	X52	Y52	Z52	X53	Y53	Z53	X54	Y54	Z54	X55	Y55	Z55	X56	Y56	Z56	X57	Y57	Z57	X58	Y58	Z58	X59	Y59	Z59	X60	Y60	Z60

360	1.8	214.07	1643.2	84.835	207.76	1637.3	-14.194	233.28	1377	55.064	302.84	1219.4	48.842	160.22	965.26	-132.99	222.53	948.75	224.99	122.44	1457	229.4	61.006	1292.1	337.68	35.865	1138.7	375.01	31.434	981.63	379.19	24.719	865	302.47	16.486	867.45	383.79	20.296	776.42	345.59	107.62	1437.9	-122.98	104.59	1268.1	-217.72	136.44	1113.8	-280.1	232.46	1018	-283.19	346.16	961.47	-217.29	323.72	914.55	-270.68	412.53	906.86	-246.13	267.49	618.35	252.73	225	692.51	262.39	282.16	501.2	97.874	380.67	401.28	179.96	367.16	312.09	234.34	385.49	314.62	175.68	46.192	735.6	-161.37	18.014	567.24	-147.01	-23.168	489.77	-144.57	6.1658	466.07	9.0985	-26.359	344.32	-84.483	-109.59	293.55	-118.97	-79.57	281.98	-65.542	-203.01	33.217	-39.068	389.87	228.68	171.49	-141.42	222.12	-49.441	369.14	86.818	118.89	501.8	41.407	152.82	272.18	723.2	244.09	31.74	652.38	-154.12	89.183	643.73	-140.82	540.79	56.174	184.65	-18.264	1086.7	269.63	295.79	508.57	251.3	64.497	1546.8	-11.212	-160.88	24.657	-82.323	180.61	766.53	271.33	280.43	43.412	156.32	36.626	1452.8	59.873	-25.671	1341.1	165.84	333.95	74.583	202.6	-61.249	1000.3	110.94	-268.68	43.324	-106.26	-21.247	1138	65.663	-310.12	151.9	-46.652	-64.968	1014.1	26.555	-278.4	142.45	37.27	88.544	1561.9	135.33	-362.71	156.62	13.724	125.76	1033	-180.88
361	1.805	220.86	1643.3	86.756	214.44	1637.4	-12.283	240.27	1377.1	56.823	310.04	1219.7	50.467	168.23	965.52	-130.91	229.98	949.33	225.93	129.51	1456.6	231.28	68.743	1291.3	339.3	44.162	1137.8	376.47	40.131	980.73	380.54	33.479	864.17	303.75	25.544	866.54	385.09	29.734	775.63	346.89	114.66	1438	-121.29	110.1	1268.2	-216.07	140.78	1113.8	-278.71	236.51	1017.7	-282.01	350.19	960.66	-216.5	327.44	913.79	-269.82	416.3	905.8	-245.48	274.67	618.66	253.99	232.04	692.76	263.54	290.21	502.26	98.576	386.72	400.45	180.6	372.03	311.29	234.74	390.3	313.75	176.05	54.974	735.44	-160.9	27.758	566.84	-147.47	-13.248	489.51	-145.46	16.434	465.24	8.2943	-18.118	344.23	-85.576	-102.32	294.99	-119.78	-72.379	282.75	-66.497	-202.36	33.197	-38.567	393.44	227.76	171.6	-135.02	223.88	-50.279	370.4	86.305	118.66	502.71	38.74	152.49	279.23	723.51	245.41	41.042	652.12	-154.17	98.439	643.71	-140.67	542.23	52.755	184.16	-10.084	1085.7	271.22	302.94	508.47	252.35	71.306	1546.7	-9.2473	-161.41	24.521	-82.095	187.57	766.75	272.44	281.14	44.115	156.28	43.616	1452.8	61.704	-18.59	1340.9	167.69	335.28	74.507	202.45	-54.09	1000.1	111.87	-266.98	45.681	-105.72	-14.25	1137.9	66.787	-304.82	156.52	-46.847	-57.702	1013.5	27.183	-272.82	146.37	36.837	95.475	1561.8	137.29	-356.5	162.82	13.798	128.86	1033.1	-179.79
362	1.81	227.63	1643.4	88.651	221.12	1637.6	-10.397	247.22	1377.3	58.536	317.16	1220	52.051	176.18	965.84	-128.86	237.34	950.02	226.93	136.57	1456.4	233.12	76.495	1290.6	340.91	52.505	1137	377.9	48.931	979.95	381.91	42.408	863.45	305.07	34.75	865.75	386.44	39.371	774.95	348.24	121.69	1438.2	-119.62	115.63	1268.4	-214.44	145.07	1113.8	-277.29	240.43	1017.3	-280.83	354.07	959.78	-215.71	330.95	912.98	-268.97	419.87	904.62	-244.86	281.59	618.86	255.19	238.92	692.95	264.66	298.22	503.24	99.145	392.54	399.62	181.13	376.71	310.48	235.03	394.91	312.87	176.31	63.904	735.32	-160.44	37.748	566.48	-147.97	-3.0393	489.27	-146.39	27.031	464.43	7.4581	-9.5426	344.22	-86.721	-94.693	296.51	-120.63	-64.811	283.58	-67.507	-201.49	33.28	-38.044	396.81	226.87	171.58	-128.22	225.7	-51.171	371.5	85.824	118.34	503.5	36.381	152.1	286.17	723.73	246.75	50.544	651.9	-154.26	107.88	643.76	-140.52	543.53	49.676	183.6	-1.841	1084.8	272.8	309.85	508.27	253.31	78.101	1546.7	-7.3252	-161.73	24.349	-81.864	194.45	766.97	273.54	281.78	44.757	156.21	50.57	1453	63.491	-11.534	1340.8	169.51	336.5	74.465	202.24	-46.98	999.9	112.75	-264.9	48.235	-105.19	-7.2979	1137.9	67.895	-299.07	161.21	-47.078	-50.464	1013	27.775	-266.78	150.34	36.357	102.38	1561.7	139.21	-349.8	169.06	13.837	131.46	1033.2	-178.8
363	1.815	234.39	1643.6	90.516	227.78	1637.9	-8.5416	254.12	1377.5	60.201	324.21	1220.3	53.591	184.09	966.22	-126.86	244.61	950.82	228.01	143.61	1456.3	234.9	84.259	1290	342.48	60.888	1136.4	379.33	57.828	979.31	383.3	51.506	862.85	306.43	44.097	865.09	387.81	49.2	774.42	349.65	128.69	1438.5	-117.97	121.19	1268.6	-212.82	149.32	1113.9	-275.84	244.24	1017	-279.64	357.8	958.81	-214.93	334.28	912.11	-268.11	423.25	903.32	-244.25	288.24	618.94	256.31	245.61	693.05	265.71	306.13	504.1	99.596	398.13	398.76	181.53	381.21	309.66	235.2	399.3	311.99	176.45	72.97	735.25	-159.99	47.963	566.16	-148.48	7.439	489.06	-147.34	37.939	463.65	6.606	-0.63532	344.28	-87.893	-86.708	298.08	-121.5	-56.863	284.48	-68.554	-200.31	33.494	-37.514	399.98	225.99	171.44	-121.04	227.58	-52.099	372.47	85.365	117.96	504.18	34.317	151.65	292.97	723.82	248.1	60.227	651.73	-154.38	117.49	643.88	-140.36	544.7	46.919	183.02	6.457	1084	274.37	316.51	507.99	254.18	84.876	1546.8	-5.4497	-161.76	24.147	-81.633	201.22	767.15	274.62	282.35	45.337	156.1	57.478	1453.2	65.236	-4.5046	1340.7	171.32	337.63	74.447	201.98	-39.921	999.75	113.6	-262.4	50.979	-104.68	-0.39051	1138	68.99	-292.88	165.93	-47.344	-43.258	1012.5	28.347	-260.31	154.32	35.832	109.26	1561.6	141.08	-342.62	175.31	13.831	133.63	1033.5	-177.91
364	1.82	241.13	1643.8	92.343	234.43	1638.2	-6.7217	260.97	1377.7	61.812	331.18	1220.7	55.085	191.95	966.65	-124.91	251.77	951.7	229.16	150.64	1456.2	236.64	92.033	1289.5	344.03	69.304	1135.9	380.73	66.815	978.8	384.7	60.771	862.37	307.82	53.581	864.57	389.22	59.214	774.01	351.11	135.64	1438.8	-116.35	126.78	1269	-211.21	153.55	1114.2	-274.36	247.94	1016.7	-278.44	361.38	957.77	-214.15	337.43	911.19	-267.25	426.43	901.92	-243.65	294.63	618.89	257.33	252.1	693.05	266.69	313.85	504.81	99.945	403.47	397.89	181.8	385.54	308.83	235.26	403.46	311.11	176.46	82.153	735.22	-159.54	58.38	565.88	-149.01	18.165	488.87	-148.29	49.133	462.91	5.7569	8.5977	344.41	-89.065	-78.364	299.71	-122.39	-48.54	285.44	-69.61	-198.76	33.871	-36.991	402.96	225.12	171.17	-113.47	229.49	-53.041	373.31	84.919	117.53	504.76	32.531	151.17	299.62	723.78	249.44	70.07	651.61	-154.5	127.25	644.08	-140.19	545.75	44.467	182.42	14.8	1083.3	275.92	322.9	507.63	254.95	91.628	1547	-3.6241	-161.42	23.923	-81.405	207.87	767.26	275.65	282.86	45.858	155.95	64.334	1453.4	66.939	2.4968	1340.8	173.1	338.67	74.448	201.67	-32.918	999.65	114.4	-259.42	53.904	-104.2	6.4709	1138.2	70.074	-286.25	170.64	-47.645	-36.086	1012.1	28.917	-253.41	158.31	35.273	116.11	1561.7	142.91	-334.99	181.51	13.775	135.48	1033.8	-177.08
365	1.825	247.86	1644.1	94.128	241.07	1638.6	-4.9419	267.77	1378.1	63.368	338.08	1221.1	56.531	199.74	967.14	-123.02	258.84	952.65	230.39	157.65	1456.3	238.33	99.814	1289.2	345.55	77.751	1135.5	382.12	75.887	978.43	386.11	70.203	862.01	309.24	63.193	864.18	390.65	69.409	773.75	352.62	142.54	1439.3	-114.76	132.39	1269.5	-209.63	157.75	1114.5	-272.85	251.55	1016.4	-277.25	364.82	956.66	-213.38	340.39	910.23	-266.4	429.42	900.4	-243.08	300.76	618.71	258.25	258.39	692.95	267.59	321.31	505.35	100.21	408.56	397	181.93	389.68	308	235.21	407.4	310.23	176.35	91.436	735.24	-159.09	68.976	565.65	-149.52	29.117	488.73	-149.23	60.58	462.23	4.9313	18.147	344.6	-90.208	-69.66	301.36	-123.26	-39.852	286.45	-70.647	-196.76	34.441	-36.493	405.75	224.27	170.81	-105.52	231.45	-53.972	374.05	84.484	117.04	505.27	31.003	150.67	306.12	723.6	250.76	80.047	651.54	-154.61	137.14	644.35	-139.99	546.7	42.299	181.82	23.179	1082.7	277.47	329.04	507.21	255.62	98.354	1547.2	-1.8513	-160.61	23.692	-81.184	214.39	767.3	276.63	283.31	46.323	155.76	71.132	1453.8	68.599	9.4681	1341	174.86	339.62	74.462	201.32	-25.972	999.62	115.18	-255.91	56.997	-103.77	13.286	1138.4	71.151	-279.17	175.33	-47.977	-28.953	1011.7	29.498	-246.09	162.29	34.692	122.93	1561.8	144.68	-326.93	187.63	13.662	137.11	1034.3	-176.27
366	1.83	254.56	1644.5	95.865	247.69	1639.1	-3.207	274.51	1378.5	64.868	344.91	1221.6	57.928	207.46	967.67	-121.19	265.79	953.63	231.69	164.63	1456.5	239.96	107.6	1288.9	347.05	86.222	1135.2	383.5	85.038	978.18	387.53	79.801	861.78	310.69	72.928	863.93	392.1	79.776	773.62	354.16	149.39	1439.9	-113.19	138.02	1270	-208.07	161.94	1114.8	-271.32	255.07	1016.1	-276.06	368.12	955.48	-212.62	343.18	909.22	-265.55	432.24	898.78	-242.53	306.65	618.41	259.06	264.5	692.76	268.39	328.44	505.71	100.42	413.38	396.1	181.94	393.64	307.17	235.08	411.11	309.35	176.15	100.8	735.31	-158.64	79.726	565.48	-150.01	40.272	488.62	-150.14	72.244	461.64	4.1504	27.999	344.88	-91.29	-60.602	303.03	-124.09	-30.813	287.52	-71.635	-194.24	35.232	-36.035	408.35	223.42	170.37	-97.196	233.42	-54.866	374.7	84.059	116.54	505.7	29.711	150.16	312.47	723.31	252.04	90.134	651.53	-154.7	147.13	644.7	-139.77	547.55	40.398	181.23	31.583	1082.2	279.01	334.92	506.76	256.2	105.05	1547.5	-0.13366	-159.24	23.471	-80.971	220.77	767.27	277.55	283.71	46.735	155.55	77.87	1454.2	70.217	16.407	1341.2	176.6	340.48	74.485	200.96	-19.086	999.66	115.94	-251.82	60.241	-103.38	20.055	1138.7	72.222	-271.65	179.97	-48.333	-21.865	1011.5	30.102	-238.38	166.24	34.105	129.71	1562	146.4	-318.48	193.63	13.491	138.66	1034.9	-175.45
